<?xml version="1.0" encoding="utf-8"?>
<!-- Generator: Adobe Illustrator 24.2.3, SVG Export Plug-In . SVG Version: 6.00 Build 0)  -->
<svg version="1.1" id="Camada_1" xmlns="http://www.w3.org/2000/svg" xmlns:xlink="http://www.w3.org/1999/xlink" x="0px" y="0px"
	 viewBox="0 0 1787.5 1369" style="enable-background:new 0 0 1787.5 1369;" xml:space="preserve">
<style type="text/css">
	.st0{fill:#F4F5F5;}
	.st1{fill:#D31F30;}
</style>
<g id="Camada_2_1_">
	<g id="Layer_1">
		<path class="st0" d="M370.4,855.3h11.8L368,918.9H256.1c-17.4,0-48.6,1-48.6,1v-11.1c15.6-1.7,23.3-9,23.3-21.5V761.4
			c0,0.9,0.1,1.7,0.1,2.6c8.2-9.1,17.8-13.9,29.7-14.6c-0.3-1.7,0-3.5,0.8-5.1v29.5c-3.1,0.9-5.6,5.2-11.1,3.1c0,0.2,0.1,2.5,0,2.7
			c5.7-2.9,8,1.5,11.1,5.4v101.4c0,6.4-0.6,12.8-1.7,19.1h58C347.5,905.3,353.1,894.6,370.4,855.3z M594,831.7
			c-1.8,2-3.7,3.8-5.8,5.6c-10.8,40-42.9,68-106.9,68h-24.7c1.1-6.4,1.7-12.9,1.7-19.5V704.1l3.5-3.5h31.3c39,0,67,14.5,83.1,39.5
			c1.4-0.5,2.9-0.9,4.3-1.2c-0.4,1.9-0.9,3.8-1.6,5.6c9,15.9,13.5,35.5,13.5,57.9c0,5.5-0.3,11-0.9,16.5c2-1.1,3.9-2.5,5.6-4.1
			c6.3-6,23.3-16.8,26-24.5c-3.4-0.9-6.8-1.7-10.3-2.1c7.5,0.3,10.3-1.9,13.5-4.3c-0.6-8.2-2-16.3-4.3-24.2
			c-5.5,2.2-10.1-3-14.3-5.2c1.8,0.4,4.7-0.4,6.5-0.4c0.5-3.9,2.3-5.3,4-5.1c-19.7-46.3-71.1-62-124-62h-95.1v8.7
			c26.8,5.2,28.5,8.7,28.5,25.4v166.1c0,12.5-9.4,19.8-25,21.5v11.1c0,0,33-1,50.4-1h28.1c86.9,0,145.6-45.9,145.6-124.4
			c0-1.4,0-2.7,0-4C616.9,805,605.9,818.7,594,831.7z M230.7,721.2v30.1c1.9,0.9,4.5,3.3,7.1,3.2c8.6-0.3,15.3-9.8,23.4-14.3v-11
			c0-28.8,11.5-42,11.5-42l-1.7-1.4c0,0-7.6,1.4-38.9,1.4H205v8.7C230.7,701,230.7,704.5,230.7,721.2z M659.2,908.8v11.1
			c0,0,9.9-0.3,21.8-0.6c2.6-8.5,5.5-17.7,9-25.4c2.8-6.2,5.5-15.3,9.2-21.8c0.2-2.5,0.5-5,1-7.5c2.5-14.8,9.1-29.1,14.7-43.5v-9.6
			l3.5-3.5h60.1v25.7h16.3v-61.2l-12.9,2.1l-2.8,19.8h-64.3v-90.4l3.5-3.5h45.5c27.8,0,39.3,7.3,37.5,43.1h11.8l10.8-58
			c0,0-8.5,1.1-20.5,1.3c-2.6,5.6-7.5,9-6.7,16.7c-4.2-1.6-3.1-10.4-3.2-16.7H655.7v8.7c26.8,5.2,28.5,8.7,28.5,25.4v166.1
			C684.2,899.8,674.8,907.1,659.2,908.8z M1142.1,740.4l-20.5,51c2.7,1.5,5.6,2.4,8.7,2.8c1,2.1,1.9,4.5,2.8,6.9l17.6-45.7
			C1146.9,761.5,1143.9,749.1,1142.1,740.4L1142.1,740.4z M714.8,885.9V822c-4.5,13.8-10,27.3-12.2,41.7c-0.3,1.8-0.5,3.6-0.7,5.5
			c0.1,3.2-0.1,6.3-0.7,9.4c-0.3,3.9-0.6,7.8-1.1,11.5c-1.3,8.5-5,19.7-5.8,29c5.2-0.1,10.1-0.2,14.3-0.2c0-1.5,0-2.8,0.1-3.7
			c0.5-9.8,0.7-17.8,6.1-25.4C714.8,888.6,714.8,887.2,714.8,885.9z M1143.5,737c1.5,2.6,3.4,4.7,4.7,7.5c0.8,1.7-0.3,4.9,0.6,6.3
			c0.7,1.1,1.5,2.1,2.5,3l11.4-29.8c2,7.2,4.3,14.3,7,21.2l2.9,7.7c-0.1-10.5,0.5-21.1,0.5-31.4c0-12.5,0.3-23.6-2.9-34.8l-7.2,1.6
			L1143.5,737z M111.9,905.3H57.3c1.1-6.4,1.7-12.9,1.7-19.5v-74.4l3.5-3.5h60.1v25.7H139v-61.2l-12.8,2.1l-2.8,19.8H59.1v-90.4
			l3.5-3.5h45.5c27.8,0,39.3,7.3,37.5,43.1h11.8l10.8-58c-8.3,0.9-16.6,1.4-25,1.4H0v8.7c26.8,5.2,28.5,8.7,28.5,25.4v166.1
			c0,12.5-9.4,19.8-25,21.5v11.1c0,0,33-1,50.4-1h108.4l12.9-56.6h-11.8C146,898.8,141.8,905.3,111.9,905.3z M1015.2,735.8
			c3.4,1,7,0.3,9.9-1.8c-0.8-4.6-2.3-9.1-4.4-13.3C1019.2,725.2,1015.1,728.7,1015.2,735.8L1015.2,735.8z M621.6,757.7
			c-0.1,0.2-0.2,0.4-0.2,0.5l0.5,0.2C621.8,758.2,621.7,757.9,621.6,757.7z M934.4,700.7c33.8,0,50.2,15.6,55.6,35.2
			c4.2,3.1,9.6,2.5,13.5,4.9c-4,1.4-8.2,1.6-12.3,0.7c1.2,7.1,1.2,14.4,0,21.6c20.5-8.7,18.5-29.3,26.3-47.6
			c-9.9-14.3-29.3-24.9-61.1-27.6c-1.4,1.8-2.3,4-2.6,6.3c-3.8,0-4.7-3-4-6.7c-3.3-0.2-6.6-0.3-10.2-0.3h-1.4
			c-1.6,4.8-3.4,8.6-4.2,13.4v0.2H934.4z M1463.3,687.1v9.7c28.2,2.8,28.5,10.8,28.5,26.1v144.6c-3.8-5.6-9.4-12.9-13.9-18.4
			l-83.5-96.4c-1.7,0.1-3.4-0.1-5-0.4c0.3-1.6,0.5-3.2,0.4-4.8l-4.8-5.6c-2.4-0.2-4.8-0.3-7.2-0.3c0.1-2.2,0.5-4.4,1.3-6.5
			l-27.1-31.3c-4.9-5.6-9.2-11.6-12.9-18.1c0,0-8.9,0.7-20.2,1.1c-0.9,3.8-3.3,7.9-4.4,10.8c-0.6,1.5-1.1,3.1-1.6,4.7
			c2.3,1.6,4.2,3.7,5.6,6.1c3.9-1.9,7-5.3,9.1-4.4c5.4,2.5-1.9,8.7-6.3,11.8c0.9,5,1.4,10,1.3,15.1V794c5,1.7,11.2,2.1,15.3,3.2
			v-67.6c3.9,5.8,8,11.4,12.5,16.7l34.4,40.7c3.4-0.2,6.6-3,9.3,0c0.8,0.8-0.5,6.5-0.9,9.9L1498,920.7h9V727.4
			c0-28.8,24-35.4,24-35.4l-1.7-4.9H1463.3z M1311.5,687c-2.3,0-4.7,0.1-7,0.1h-10.4v8.7c6.8,1.2,12.1,2.7,16.1,4.8
			C1310.6,696,1311.1,691.5,1311.5,687z M1337.9,887.2V801c-3.3-0.2-6.7-0.7-9.2-0.6c-2.1,0.3-4.1,0.7-6.1,1.2V829
			c4.6,0.8,5.3,5.5,3,10c-0.7,1.4-1.7,2.7-3,3.6v44.7c0,12.5-9.4,19.8-25,21.5V920l68.5-2.1l1.4-9.7l-31.3-2.2
			C1337.3,899.8,1337.9,893.6,1337.9,887.2L1337.9,887.2z M1787.5,794.5c0,78.5-58.7,124.4-145.6,124.4h-28.2c-17.4,0-50.4,1-50.4,1
			v-11c15.6-1.7,25-9,25-21.5v-39.4c1.3,1.4,2.7,2.7,3.8,3.7c3.1,3,7,5.5,10.8,8.1c5.8,6.8,12.4,13.4,15.2,18.4
			c-2.1-8.9-8.6-13.8-15.2-18.4c-6.5-7.8-11.9-15.8-9.3-22.4c-1.7-4.2-3.5-8.4-5.2-12.5v-75.1c4.9-2.2,7.7-7.7,13.9-9
			c-4.1,0.1-9.4,0.9-13.9,0.1v-19.6c0-16.7-1.7-20.2-28.5-25.4v-8.7h95.2C1722.5,687.1,1787.5,712.5,1787.5,794.5L1787.5,794.5z
			 M1753.1,802.5c0-61.5-34.4-101.8-99.4-101.8h-31.3l-3.5,3.5v181.8c0,6.5-0.6,13-1.7,19.5h24.7
			C1723.2,905.3,1753.1,860.2,1753.1,802.5L1753.1,802.5z M1011.2,885.7c-1.8-6.3-1.1-12.2-3.8-18.8c-2.2-5.3-5.6-10.2-7.3-15.7
			c-1.6-5.1-3.6-11.4-4.2-16.9l-15.9-23.2v-4.5c16.7-8.7,45.9-30.9,45.9-63.6c0-1.5-0.1-3-0.2-4.5c-2.9,1.7-5.7,0.6-8.6,2.4
			c-4.4,2.7-7.1,6.5-10.2,10.4c-5.2,6.4-8.9,12.7-16.2,14.9c-5.6,24.2-25.6,36.3-43.3,36.3h-29.2v-98.3l3.5-3.5H934
			c0-0.1,0-0.1,0-0.2c-0.2-4.5-1-8.7-1.3-13.4h-0.1l0,0h-30.2c-0.5,2.8-1.8,5-4.5,6c0-1.5-0.5-3.9-0.7-6H859v8.7
			c26.8,5.2,28.5,8.7,28.5,25.4v166.1c0,11.8-9.7,19.8-25,21.5v11.1l83.8-2.1l1.4-9.7l-31.3-3.1c1.2-5.8,1.8-11.8,1.7-17.7v-67.8
			l3.5-3.5h25.4l43.1,63.6c8.3,12.1,15.5,24.9,21.5,38.2l1.4,1h16.8C1026.4,906.7,1014.2,896.7,1011.2,885.7L1011.2,885.7z
			 M1254.5,882.4l-69.8-178.7c-1.9,1.9-3.5,4.2-4.7,6.7c-4.7,10.5-1.8,24.6-3,36.2c-0.4,6-0.4,12,0,18l22.6,59.8h-75.4l6.8-17.7
			c-4.4-3-8.8-5.8-12.8-6.6l-3.2,7.9c0,4.3,1,9-0.2,14.8c-2.5-0.1-5,0.8-6.8,2.6l-27.2,67.8c-2.3,5.8-6.9,11.9-16.9,14.5l-2.9-0.3
			c-9-0.7-16-1.4-30.9-22.9l-21.3-31.2c0.1,3.7-0.4,7.6,0.5,11c2.3,8.9,5.6,18,7,27.5c9.2,4.9,11.4,20,20.9,27h36c2-3,3.9-6.3,6-8.6
			c2.9,3.2,4.8,6,5.5,8.6h37.2l1.4-9.7l-29.5-4l24-62.5l4.5-3.5h83.1l21.2,55.6c3.8,10.4-4.9,13.2-14.6,13.5v11.8c0,0,40-1,52.8-1
			h14.9l1.4-9.4C1270.1,907.8,1263.8,906,1254.5,882.4L1254.5,882.4z M767.6,905.3h-54.6c0,0,0.6-3.1,1.1-7.7
			c-2.3,7-4.4,14.6-2.8,21.2h88c-0.7-6.3-1.9-13.2-0.6-17.1c-0.4,4.1,4.5,11.3,7.1,17.1H818l12.9-56.6H819
			C801.7,898.8,797.5,905.3,767.6,905.3z M695,901.2c-0.4,2.9-0.7,5.8-0.8,8.7c1-2.9,1.8-5.8,2.4-8.7c0.6-3.4,1.1-6.9,1.4-10.3
			C696.8,894.3,695.7,897.8,695,901.2z"/>
		<path class="st1" d="M743.3,1054.3c-6.6-20,7-31.5,7-31.5c-19.8,40.1,29,58.7,43,70.3c16.4,13.5,12.8,36.8,10,51s-3.5,23,6.5,43.3
			s30,34,30,34c-24.5-9.5-58.2-39.6-64.3-64.8c-5.5-23,7-35,7-35c-10.3,26.5,5.3,53.3,5.8,38.3c0.5-15.5,4.9-18.8,3-42.3
			C789.8,1098.8,751.3,1078.5,743.3,1054.3z M994.2,1093c-16.4,13.5-12.8,36.8-10,51s3.5,23-6.5,43.3s-30,34-30,34
			c24.5-9.5,58.2-39.6,64.3-64.8c5.5-23-7-35-7-35c10.3,26.5-5.3,53.3-5.8,38.3c-0.5-15.5-4.9-18.8-3-42.3c1.5-18.8,40-39,48-63.3
			c6.6-20-7-31.5-7-31.5C1057,1062.8,1008.2,1081.5,994.2,1093z M954.9,1238.8c11.5-7.8,9.3-17,9.3-17c-6.5,11.2-37.8,19.1-25.8-0.5
			c10.2-16.7,33.9-23.7,31.3-44.8c-4.1,13.4-19.8,18.6-29.1,28.5c10.9-11.6,37.5-44.4,33.8-62.8c0.8,10.8-9,21-9,21
			c-30.5,32.2-70.3,90.1-52.5,137.8C908.7,1259.8,944.5,1245.8,954.9,1238.8z M832.6,1238.8c10.4,7,46.3,21,42,62.3
			c17.8-47.6-22-105.5-52.5-137.8c0,0-9.8-10.3-9-21c-3.7,18.4,23,51.2,33.8,62.8c-9.3-9.9-25-15.1-29.1-28.5
			c-2.6,21.1,21.1,28.1,31.3,44.8c12,19.6-19.3,11.7-25.8,0.5C823.4,1221.8,821.1,1231,832.6,1238.8z"/>
		<path class="st1" d="M823.9,628.9c-55.6-28.8-77.1-35.3-77.1-35.3s6.1-5.6,7-9.7c2.3-9.7-5.6-19.8-17.6-22.6s-29.9-3.2-32.1,6.5
			c-0.7,3,0.2,6.5,2,10.1c-17.8-7.9-56.6-17.3-56.6-17.3c18,0.5,36-0.8,53.7-4.1c25.7-4.7,40.9-7.6,55.8,13
			C775.4,592.1,823.9,628.9,823.9,628.9z M486.1,303.3c48.7-19.7,38-41.3,32.3-36.7s-15.3-2.3-19.7,2.3s-11,22.7-19,23.3
			s-12.3-12.7-17.7-11.3s-19,18.3-23.7,11s-1.7-22.3-9.7-21.3s-16.3,1.7-29.7-12.3C398.3,257.5,437.4,323,486.1,303.3z M728.8,527.5
			c8.8-5.5,19.7,2.3,19.7,2.3c-8.6-9.4-6.3-13.6-6.3-13.6C731.2,517,728.8,527.5,728.8,527.5z M626.8,558.5c0,0,14,11.4,4.3,18.7
			c-11.4,8.6-36.7-12.5-29.7-12.7c0,0,4.8-1.4,18.4,3.5c0,0-27.6-16.6-51.5-25.1c0,0,46,57.7,57.7,104.3c0,0,1.8-8.6-0.3-27.6
			s2.2-28.8,11-38.6S641.2,563.7,626.8,558.5L626.8,558.5z M657.8,150c3.7,6.3,8,6,8,6c2.7-22-13.3-33.3-28-29.7s-26,15.7-26,15.7
			C649.8,125.7,654.1,143.7,657.8,150L657.8,150z M704.1,100c2,1.7,2.7,1.3,4,5s1.9,3.8,6.3-0.3c10.3-9.7,24-12,24-12
			s-8.7-2.7-17.3,0s-12.3,1-16,2S702.1,98.3,704.1,100L704.1,100z M689.8,118c1,3.3,3.3,3,3.3,3s12.3-14.7,0.3-18s-12,4-12,4
			C691.1,108,688.8,114.7,689.8,118L689.8,118z M712.5,545.3c5.6-0.3,11.2-1.2,16.7-2.6c9.4-2.4,14.8,2.6,19.9,5
			c3.2,1.4,6.6,2.6,10,3.5c-4.1-1.7-10.8-9.9-16.8-15.1s-12.4-0.8-17.8,3C720.7,541.5,716.7,543.6,712.5,545.3L712.5,545.3z
			 M673.1,135.7c1.4,4,4.8,7.1,9,8c2.7-12.7,0.3-32.3-11.7-34.7s-16,7.7-16,7.7C669.8,115,670.4,128.7,673.1,135.7z M627.1,221
			c-18.7,5.7-20.7,22.3-20.7,22.3c38.3-26.7,58,11.7,58,11.7C660.4,236,645.8,215.3,627.1,221z M1084.2,556.5
			c-25.7-4.7-40.9-7.6-55.8,13c-16.3,22.6-64.9,59.4-64.9,59.4c55.6-28.8,77.1-35.3,77.1-35.3s-6.1-5.6-7-9.7
			c-2.3-9.7,5.6-19.8,17.6-22.6s29.9-3.2,32.1,6.5c0.7,3-0.2,6.5-2,10.1c17.8-7.9,56.6-17.3,56.6-17.3
			C1120,561.2,1102,559.8,1084.2,556.5z M1301.4,303.3c48.7,19.7,87.8-45.9,87-45c-13.3,14-21.7,13.3-29.7,12.3s-5,14-9.7,21.3
			s-18.3-9.7-23.7-11s-9.7,12-17.7,11.3s-14.7-18.7-19-23.3s-14,2.3-19.7-2.3S1252.8,283.7,1301.4,303.3L1301.4,303.3z
			 M1058.8,527.5c0,0-2.5-10.5-13.4-11.3c0,0,2.3,4.2-6.3,13.6C1039.1,529.8,1049.9,522,1058.8,527.5z M1186.2,564.5
			c7,0.2-18.3,21.3-29.7,12.7c-9.7-7.3,4.3-18.7,4.3-18.7c-14.4,5.2-18.7,12.6-9.8,22.4s13.2,19.6,11,38.6s-0.3,27.6-0.3,27.6
			c11.7-46.6,57.7-104.3,57.7-104.3c-23.9,8.6-51.5,25.1-51.5,25.1C1181.4,563.1,1186.2,564.5,1186.2,564.5L1186.2,564.5z
			 M1121.8,156c0,0,4.3,0.3,8-6s8-24.3,46-8c0,0-11.3-12-26-15.7S1119.1,134,1121.8,156z M1079.4,105c1.3-3.7,2-3.3,4-5
			s2.7-4.3-1-5.3s-7.3,0.7-16-2s-17.3,0-17.3,0s13.7,2.3,24,12C1077.6,108.8,1078.1,108.7,1079.4,105z M1097.8,118
			c1-3.3-1.3-10,8.3-11c0,0,0-7.3-12-4s0.3,18,0.3,18S1096.8,121.3,1097.8,118z M1028.5,551.2c3.4-0.9,6.8-2.1,10-3.5
			c5.1-2.5,10.5-7.5,19.9-5c5.5,1.4,11,2.3,16.7,2.6c-4.2-1.7-8.2-3.7-11.9-6.2c-5.4-3.8-11.8-8.2-17.8-3S1032.6,549.5,1028.5,551.2
			z M1105.5,143.7c4.2-0.9,7.6-4,9-8c2.7-7,3.3-20.7,18.7-19c0,0-4-10-16-7.7S1102.8,131,1105.5,143.7L1105.5,143.7z M1427.1,343
			c-5.9,3.5-11.3,7.9-16,13c-6.7,7.7-38,57-114,62.3c-56.5,4-105.1-21.6-134-0.4c-38.8,30.5-26.9,111.7,18.4,126.8
			c-38.6,12.5-105.7,9-117.1-30.1c8.2,11.7,26.3,22.1,44.5,23.6c-27.2-17.8-53.6-49.6-45.7-95c-12.6,21.6-13.2,50.4-13.2,50.4
			c-12.3-80.3,19.3-102.7,19.3-102.7c-1.4,4.4-1.8,21.7,3.7,16.8c7.8-7,5.8-32.1-6.3-26.1c0,0,29.8-22.4,38-54.2
			c-6.3,5.5-12,11.6-17,18.3c-9,12.3-16,18-22.3,17.7c0,0,8.3-8.3,7.3-14.3s-19,4-27.7,30.7s-14.3,58-11,114.3s-38.7,91-78,110.3
			c9.9-9.7,20.5-18.6,31.7-26.7c17.3-12.3,41.3-49,34-100.3c0,0-9.7,23.5-25.7,44c-26,33.3-66,58.3-72.3,100c0,0-5.7-28,20-66.7
			s31.7-53,35.7-72.3c0,0-22,18.7-39.3,56c0,0,0-36,31-74s50.7-51,58-71c7.3-20,8-27.3,8-27.3s-59,22.7-109,117
			s-17.7,151.7-3.7,152.7c0,0-27.1,8.2-30.7-42.3c-3.6,50.5-30.7,42.3-30.7,42.3c14-1,46.3-58.3-3.7-152.7s-109-117-109-117
			s0.7,7.3,8,27.3s27,33,58,71s31,74,31,74c-17.3-37.3-39.3-56-39.3-56c4,19.3,10,33.7,35.7,72.3s20,66.7,20,66.7
			c-6.3-41.7-46.3-66.7-72.3-100c-16-20.5-25.7-44-25.7-44c-7.3,51.3,16.7,88,34,100.3c11.2,8.1,21.8,17,31.7,26.7
			c-39.3-19.3-81.3-54-78-110.3s-2.3-87.7-11-114.3S715.8,343,714.8,349s7.3,14.3,7.3,14.3c-6.3,0.3-13.3-5.3-22.3-17.7
			c-5-6.7-10.7-12.9-17-18.3c8.2,31.8,38.1,54.2,38.1,54.2c-12.1-6-14.1,19.2-6.3,26.1c5.5,4.9,5.1-12.5,3.7-16.8
			c0,0,31.7,22.4,19.3,102.7c0,0-0.5-28.8-13.2-50.4c7.9,45.4-18.4,77.3-45.7,95c18.1-1.4,36.3-11.9,44.5-23.6
			c-11.4,39.1-78.5,42.6-117.1,30.1c45.2-15,57.1-96.3,18.4-126.8c-28.9-21.2-77.5,4.4-134,0.4c-76-5.3-107.3-54.7-114-62.3
			c-4.7-5.1-10.1-9.5-16-13c8.3-1,19.7,3.7,19.7,3.7c30,17.7,39.3,9.3,39.3,9.3c22-12.3-27-27.7-50.7-86.3S363.1,162,363.1,162
			c-3,27,5.7,125,70.7,149s117-41.7,120.7-54s-6.7-14.7-17.7-14s-16.7-4.3-16.7-4.3c25.7,1,43.7-20.3,55-34s18-21.7,18-21.7
			c-3.7,0-11.3,2.3-35.3,23s-37.7,16.7-37.7,16.7c36.3-13,51-56,86.7-71s37.7-1.7,48.7,12.7s8.3,23.3,8.3,23.3
			c-3.3-16-34.3-13.7-34-9.3s3.3,2.3,19.7,8.7s8.7,26,8.7,26s-0.7-18.3-24.3-14.3s-30.7,34-63.7,66s-28,32.3-12.3,26.7
			s42.3-37.3,66-42.3s37.7,14.7,37.7,14.7c-43.3-26.7-65.3,21-75,33.7s-25,16-26.7,12s5.7-10,5.7-10c-7.3,2.3-14.7,9.7-19.7,18.3
			s-12,9.3-13.7,6.7s1.7-5.3,3.3-10c1-2.6,0.9-5.5-0.3-8c-15,29.7-30,37.3-31.3,33.3s7.7-20.3,7.7-20.3c-10.5,4-15.6,15.1-20,22.4
			c-5.2,8.3-17.3,14.8-26.7,8.3c-5.3-3.7,13.3-17.7,13.3-17.7s-13.3-1-32.3,14.7s1.3,14.3,1.3,14.3c52.7,1,94-25,111.3-36.3
			c43.4-28.4,100.4-36.5,149.5-3.2c49.5,33.5,103.6,54.5,130.8,98.8c-3.3-11.8-17.9-37.5-27.5-43.8s-11.7-6.7-11-15
			s-3.3-15.3-14.3-14.7s-17.3-5-17.3-5c9.3,0.7,17.7-8.3,12-15.3s-16.7,2.3-29.7,2.7s-15.3-7.7-15.3-7.7c2.7,3,21.7,6,18.7-11
			s-17.7-9.9-49.3-28.9s-32.3-36.7-32.3-36.7c10,16.7,26,31,62.7,40c18.7,4.6,39.5,10.1,52,25.2c-16-36.3-52.7-30.2-81.2-48
			c-32-19.9-43.8-37.4-29.1-74.3c17.3-43.7-0.7-47,83.7-89s87.7-99,87.7-99c9.3,60-25.3,76.7-64,98.7s-34.7,40.3-50.7,47.7
			s-21.7,18.3-21.7,18.3s7-9,51-21s71.7-49,71.7-49c-9.8,35-41.4,68.3-71.3,87c-33.8,21.1-44.1,51.6,0,69c0,0-27,7-39-23.7
			s24.1-58,24.1-58c-79.4,43-25.3,79.3-25.3,79.3c-31.8-15.2-28.5-54.5-28.5-54.5c-10.7,7.7-7.3,26.7-7.3,26.7
			c6.7,38.7,50.7,40.3,50.7,40.3c85.6,4.6,136.3,145,156,177.3V438v0.1c19.7-32.3,70.3-172.8,156-177.3c0,0,44-1.7,50.7-40.3
			c0,0,3.3-19-7.3-26.7c0,0,3.3,39.3-28.5,54.5c0,0,54.1-36.3-25.3-79.3c0,0,36.1,27.4,24.1,58s-39,23.7-39,23.7
			c44.1-17.4,33.8-47.9,0-69c-29.9-18.6-61.5-52-71.3-87c0,0,27.7,37,71.7,49s51,21,51,21s-5.7-11-21.7-18.3s-12-25.7-50.7-47.7
			S930.1,60,939.4,0c0,0,3.3,57,87.7,99s66.3,45.3,83.7,89c14.7,36.9,3,54.4-29.1,74.3c-28.5,17.8-65.2,11.7-81.2,48
			c12.6-15.1,33.3-20.6,52-25.2c36.7-9,52.7-23.3,62.7-40c0,0-0.7,17.7-32.3,36.7s-46.3,11.9-49.3,28.9s16,14,18.7,11
			c0,0-2.3,8-15.3,7.7s-24-9.7-29.7-2.7s2.7,16,12,15.3c0,0-6.3,5.7-17.3,5s-15,6.3-14.3,14.7s-1.3,8.7-11,15s-24.3,32.1-27.5,43.8
			c27.2-44.3,81.3-65.3,130.8-98.8c49.1-33.2,106.1-25.1,149.5,3.2c17.3,11.3,58.7,37.3,111.3,36.3c0,0,20.3,1.3,1.3-14.3
			s-32.3-14.7-32.3-14.7s18.7,14,13.3,17.7c-9.4,6.5-21.5,0-26.7-8.3c-4.4-7.3-9.4-18.4-20-22.4c0,0,9,16.3,7.7,20.3
			s-16.3-3.7-31.3-33.3c-1.2,2.5-1.4,5.4-0.3,8c1.7,4.7,5,7.3,3.3,10s-8.7,2-13.7-6.7s-12.3-16-19.7-18.3c0,0,7.3,6,5.7,10
			s-17,0.7-26.7-12s-31.7-60.3-75-33.7c0,0,14-19.7,37.7-14.7s50.3,36.7,66,42.3s20.7,5.3-12.3-26.7s-40-62-63.7-66
			s-24.3,14.3-24.3,14.3s-7.7-19.7,8.7-26s19.3-4.3,19.7-8.7s-30.7-6.7-34,9.3c0,0-2.7-9,8.3-23.3s13-27.7,48.7-12.7
			s50.3,58,86.7,71c0,0-13.7,4-37.7-16.7s-31.7-23-35.3-23c0,0,6.7,8,18,21.7s29.3,35,55,34c0,0-5.7,5-16.7,4.3s-21.3,1.7-17.7,14
			c3.7,12.3,55.7,78,120.7,54s73.7-122,70.7-149c0,0,18,49-5.7,107.7s-72.7,74-50.7,86.3c0,0,9.3,8.3,39.3-9.3
			C1407.4,346.7,1418.8,342,1427.1,343z M414.4,370.9c-0.9-1.8-1.4-2.9-2-3.9c-0.5-0.9-1.1-1.6-1.9-2.3c-0.7-0.6-1.5-0.8-2.4-0.7
			c-0.9,0.1-1.9,0.2-2.9,0.1c-1.8-0.2-3.8-0.5-5.7-0.6s-4-0.4-6.1-0.5l-0.6,1c1.2,1.7,2.6,3.3,4,4.9c1.4,1.5,3,2.9,4.7,4.1
			c0.9,0.6,1.6,1.5,2.5,2.2c0.8,0.7,1.9,1.1,3,1.1c1.3,0,2.5-0.3,3.7-0.9c1.5-0.7,2.8-1.8,3.7-3.2L414.4,370.9z M440.4,374l-0.3-1.1
			c-2.1-0.4-4.1-0.5-6.2-0.7c-2-0.1-4-0.2-6-0.1c-1,0-2.1-0.1-3.1-0.3c-1-0.1-2,0.1-2.8,0.8c-0.9,0.7-1.7,1.5-2.3,2.5
			c-0.8,1.3-1.4,2.8-1.7,4.3l0.3,1.1c1.1,1.1,2.4,2,3.8,2.7c1,0.5,2.1,0.8,3.3,0.9c1,0.1,2-0.2,2.8-0.9c0.8-0.7,1.6-1.3,2.4-1.9
			c1.7-1,3.4-2.1,5-3.3C437.2,376.7,438.8,375.5,440.4,374L440.4,374z M457.8,379.5c1.3-1.8,2.7-3.6,4.1-5.5l0,0
			c0.1-0.1,0.2-0.3,0.1-0.5c0-0.4-0.4-0.6-0.7-0.6c-2.4,0.3-4.7,0.9-7,1.6c-2.3,0.7-4.5,1.7-6.6,2.9c-1,0.6-2.3,1-3.5,1.6
			c-1.2,0.6-2.1,1.5-2.6,2.7c-0.6,1.2-0.9,2.6-1,4c-0.1,1.7,0.3,3.5,1.1,5c0.2,0.4,0.6,0.6,1,0.6l0,0c1.6-0.1,3.2-0.2,4.7-0.6
			c1.1-0.2,2.2-0.6,3.1-1.1c0.9-0.5,1.6-1.2,1.9-2.1c0.4-1,0.8-2,1.4-2.9L457.8,379.5z M480.6,373.7c0-0.2,0-0.4-0.1-0.5
			c-0.2-0.4-0.8-0.5-1.1-0.3l0,0c-2.3,1.4-4.3,2.9-6.4,4.3s-4,2.9-5.9,4.3c-1,0.7-2.1,1.2-3.2,1.7c-1,0.4-1.8,1.3-2.2,2.3
			c-0.4,1.2-0.6,2.4-0.6,3.7c0,1.5,0.1,3,0.3,5.5v0.1c0,0.5,0.3,1,0.7,1.2c1.8,1,3.9,1.4,6,1.2c1.6-0.1,3.1-0.6,4.5-1.4
			c1.2-0.7,2.1-1.8,2.6-3.1c0.5-1.3,0.8-2.7,1.3-3.9c1.1-2.4,1.9-4.8,2.6-7.4C479.7,378.9,480.2,376.3,480.6,373.7L480.6,373.7z
			 M498.4,384.4c-0.2-2.2-0.6-4.3-1.3-6.3c0-0.1-0.1-0.2-0.2-0.3c-0.3-0.3-0.9-0.4-1.2,0c0,0,0,0,0,0l0,0c-1.6,1.5-2.9,2.9-4.4,4.3
			s-2.7,2.7-3.9,4c-0.7,0.6-1.5,1.1-2.3,1.5c-0.7,0.3-1.2,1.1-1.1,1.9c0.1,1,0.3,2,0.6,3c0.4,1.2,1,2.6,1.9,4.8v0.1
			c0.2,0.5,0.5,0.8,1,1c1.7,0.7,3.7,0.9,5.5,0.6c1.4-0.2,2.6-0.8,3.8-1.6c1-0.7,1.5-1.8,1.6-3c0.1-1.2-0.1-2.4,0.1-3.5
			C498.6,388.7,498.7,386.5,498.4,384.4L498.4,384.4z M527.4,356.8c-0.2-0.4-0.7-0.5-1.1-0.3c0,0,0,0,0,0l0,0
			c-3.3,2.1-6.3,4.7-9,7.6c-2.8,3-5.1,6.4-6.9,10c-0.9,1.9-2.1,3.7-3,5.6c-0.9,1.9-1.2,4.1-1,6.2c0.2,2.2,0.9,4.3,1.9,6.3
			c0.6,1,1.2,2,2,2.9c0.4,0.5,0.8,0.9,1.3,1.3l0.7,0.6c0.2,0.2,0.5,0.4,0.8,0.5l1.1,0.3c0.2,0,0.3,0,0.4-0.1c0.6-0.7,1-1.1,1.4-1.6
			s0.7-1,1.1-1.4c0.7-0.9,1.3-1.8,1.8-2.6c0.9-1.5,1.7-3.1,2.4-4.7c0.6-1.5,0.8-3.1,0.6-4.6c-0.2-1.7-0.3-3.3-0.1-5
			c0.4-3.4,1.1-6.7,2-10c1-3.5,2.2-7,3.6-10.4C527.6,357.3,527.5,357,527.4,356.8L527.4,356.8z M554.1,357.4c2-4.4,4.2-8.6,6.7-12.6
			c0.2-0.4,0.1-0.9-0.3-1.1c-0.3-0.2-0.6-0.2-0.8,0l0,0c-4.4,2.5-8.5,5.6-12.1,9.1c-3.8,3.6-7.1,7.7-9.8,12.2
			c-1.4,2.3-2.9,4.5-4.3,6.9c-1.3,2.4-2,5.1-2.1,7.8c-0.1,2.8,0.3,5.5,1.2,8.2c0.4,1.4,1,2.7,1.7,4c0.4,0.7,0.8,1.3,1.2,1.9l0.7,0.9
			c0.2,0.3,0.5,0.5,0.8,0.8l0.8,0.5c0.3,0.2,0.6,0.1,0.8-0.1c0.7-0.8,1.2-1.3,1.7-1.9s0.9-1.1,1.3-1.7c0.8-1.1,1.5-2.2,2.2-3.2
			c1.2-1.9,2.3-3.9,3.3-6c0.9-1.9,1.4-4,1.5-6.1c0.1-2.2,0.3-4.4,0.9-6.5C550.7,365.8,552.2,361.6,554.1,357.4L554.1,357.4z
			 M583.9,344.1c2.1-5.1,4.6-10.2,7.3-15.2l0,0c0.2-0.4,0-0.9-0.4-1.1c-0.3-0.1-0.6-0.1-0.8,0.1c-4.6,3.6-8.9,7.6-12.8,12
			c-4,4.4-7.5,9.3-10.5,14.5c-1.5,2.6-3.2,5.3-4.6,8.1c-1.4,2.9-2.2,6.1-2.3,9.3c-0.1,3.4,0.5,6.7,1.7,9.8c1.2,3.3,3.3,6.2,6.1,8.4
			l0.2,0.1c0.5,0.2,1.1,0,1.3-0.5c0,0,0,0,0,0l0,0c1.5-3.2,2.6-5.8,3.7-8.3s2-4.7,2.8-7c0.9-2.3,1.4-4.7,1.6-7.1
			c0.2-2.6,0.6-5.2,1.3-7.7C580,354.3,581.8,349.1,583.9,344.1L583.9,344.1z M649.9,353.6c1.4-3,2.9-6,4.5-8.9
			c0.8-1.4,1.6-2.8,2.4-4.1l1.3-2.1c0.2-0.3,0.4-0.7,0.6-1s0.3-0.6,0.5-1c0.3-0.7,0.6-1.5,0.8-2.3c0.6-1.9,0.7-4,0.3-6
			c-0.5-2.3-1.6-4.5-3.2-6.2c-1.3-1.4-2.9-2.5-4.7-3.2c-1.4-0.6-2.8-1-4.3-1.3c-2.4-0.4-4.9-0.5-7.3-0.2c-2.2,0.2-4.3,0.6-6.4,1.1
			c-4,1.1-7.8,2.6-11.4,4.5c-3.5,1.9-6.8,4.1-9.8,6.6c-6,4.9-11.1,10.7-15.1,17.3c-7.8,12.6-11.8,27.2-11.6,42
			c3.2-6.5,6.3-12.7,9.9-18.5c3.4-5.7,7.4-11,11.8-16c1.1-1.2,2.2-2.4,3.3-3.5c1.1-1.1,2.3-2.3,3.5-3.3c2.3-2.1,4.8-4,7.4-5.8
			c2.5-1.8,5.1-3.3,7.9-4.6c2.6-1.3,5.3-2.3,8.2-3.1c1.3-0.4,2.6-0.6,3.9-0.8c0.6-0.1,1.2-0.1,1.8-0.1l-0.2,0.5
			c-0.9,1.7-1.6,3.5-2.3,5.3c-1.4,3.4-2.5,7-3.5,10.5c-1.9,7-3.2,14.1-4,21.3c-0.4,3.6-0.7,7.1-0.8,10.7c-0.1,3.6-0.1,7.2,0.1,10.8
			C639.3,379,644.2,365.9,649.9,353.6L649.9,353.6z M656.4,377.2c0,0-3.6,23.6,1.2,35.4s14.5,18.5,14.2,9.4s-5.8-13-10-21.8
			S656.4,377.2,656.4,377.2L656.4,377.2z M660.9,429.4c-4.1-6.6-9.8-12.6-10.7-19.6c-1.2,4.9-1.8,9.9-1.8,15v0.3
			c0.5,16.3,7.2,18.2,7.2,18.2C662.4,445.2,664.9,436.1,660.9,429.4L660.9,429.4z M664,496.4c-0.4-41.7,39.2-56.1,32.7-95.3
			C681,426.3,654.6,454.3,664,496.4L664,496.4z M706.4,440.2c-18.3,19.7-26.2,26.1-38.2,82.5C698.9,519.9,728,471.3,706.4,440.2
			L706.4,440.2z M675.7,334.4c0,0-29,36.9-2.8,66.1c0,0,6.2-8.5,0.4-20.5c-5.7-11.8-0.5-17-0.5-17c3.9,26,21.7,24.5,21.7,24.5
			C708.3,369.6,673.4,351.8,675.7,334.4z M942.6,385.2c0,0-40.1,49.5-48.8,68.2v-0.1v0.1c-8.7-18.7-48.8-68.2-48.8-68.2
			c25.7,47.8,46.4,115.9,48.8,124C896.2,501.1,916.9,433,942.6,385.2L942.6,385.2z M1093.1,387.5c0,0,17.8,1.6,21.7-24.5
			c0,0,5.2,5.2-0.5,17c-5.8,12,0.4,20.5,0.4,20.5c26.3-29.3-2.8-66.1-2.8-66.1C1114.1,351.8,1079.2,369.6,1093.1,387.5L1093.1,387.5
			z M1115.7,422c-0.3,9.1,9.4,2.4,14.2-9.4s1.2-35.4,1.2-35.4s-1.2,14.2-5.4,23S1116,413,1115.7,422z M1119.4,522.6
			c-12-56.4-19.9-62.8-38.2-82.5C1059.5,471.3,1088.7,519.9,1119.4,522.6L1119.4,522.6z M1090.9,401.2
			c-6.5,39.2,33.1,53.5,32.7,95.3C1132.9,454.3,1106.5,426.3,1090.9,401.2z M1139.2,425.2v-0.3c0-5.1-0.6-10.1-1.8-15
			c-1,7-6.6,13-10.7,19.6s-1.6,15.8,5.4,13.9C1132.1,443.3,1138.7,441.4,1139.2,425.2L1139.2,425.2z M1189.4,346.8
			c-4.1-6.5-9.2-12.4-15.1-17.3c-3.1-2.5-6.4-4.7-9.8-6.6c-3.6-1.9-7.4-3.5-11.4-4.5c-2.1-0.5-4.3-0.9-6.4-1.1
			c-2.4-0.2-4.9-0.2-7.3,0.2c-1.5,0.3-2.9,0.7-4.3,1.3c-1.8,0.8-3.4,1.8-4.7,3.2c-1.6,1.7-2.8,3.9-3.2,6.2c-0.4,2-0.3,4.1,0.3,6
			c0.2,0.8,0.5,1.5,0.8,2.3c0.2,0.3,0.3,0.7,0.5,1s0.4,0.7,0.6,1l1.3,2.1c0.8,1.3,1.7,2.7,2.4,4.1c1.5,2.9,3,5.8,4.5,8.9
			c5.7,12.3,10.6,25.3,16.4,38.5c0.2-3.6,0.3-7.2,0.1-10.8c-0.1-3.6-0.4-7.1-0.8-10.7c-0.8-7.2-2.1-14.3-4-21.3
			c-1-3.6-2.1-7.1-3.5-10.5c-0.7-1.8-1.4-3.5-2.3-5.3l-0.2-0.5c0.6,0,1.2,0,1.8,0.1c1.3,0.2,2.6,0.4,3.9,0.8
			c2.8,0.7,5.6,1.8,8.2,3.1c2.8,1.3,5.4,2.9,7.9,4.6c2.6,1.8,5.1,3.7,7.4,5.8c1.2,1.1,2.3,2.2,3.4,3.3s2.3,2.3,3.3,3.5
			c4.4,5,8.3,10.3,11.8,16c3.6,5.8,6.7,12,9.9,18.5C1201.2,374,1197.2,359.4,1189.4,346.8L1189.4,346.8z M1227.8,371.8
			c0-3.2-0.8-6.4-2.3-9.3c-1.4-2.9-3.2-5.5-4.6-8.1c-3-5.2-6.5-10-10.5-14.5c-3.9-4.4-8.2-8.4-12.8-12c-0.4-0.3-0.9-0.2-1.1,0.2
			c-0.2,0.2-0.2,0.6-0.1,0.8l0,0c2.7,5,5.1,10.1,7.3,15.2c2.1,5,3.9,10.1,5.5,15.3c0.7,2.5,1.1,5.1,1.3,7.7c0.2,2.4,0.8,4.8,1.6,7.1
			c0.8,2.3,1.8,4.6,2.8,7s2.2,5.1,3.7,8.3l0,0c0.2,0.5,0.8,0.7,1.3,0.5c0,0,0,0,0,0l0.2-0.1c2.8-2.2,4.9-5.1,6.1-8.4
			C1227.3,378.3,1227.8,375.1,1227.8,371.8L1227.8,371.8z M1256.1,379.7c-0.1-2.7-0.8-5.4-2.1-7.8c-1.3-2.4-2.9-4.6-4.2-6.9
			c-2.7-4.5-6-8.6-9.7-12.2c-3.7-3.5-7.7-6.6-12.1-9.1l0,0c-0.4-0.2-0.9-0.1-1.1,0.3c0,0,0,0,0,0c-0.2,0.3-0.2,0.6,0,0.8
			c2.5,4.1,4.8,8.3,6.7,12.6c1.8,4.1,3.3,8.4,4.5,12.7c0.5,2.1,0.8,4.3,0.9,6.5c0.1,2.1,0.6,4.2,1.5,6.1c0.9,2.1,2,4.1,3.3,6
			c0.7,1,1.4,2.1,2.2,3.2c0.4,0.6,0.8,1.1,1.3,1.7c0.5,0.7,1.1,1.3,1.7,1.9c0.2,0.2,0.5,0.3,0.8,0.1l0.8-0.5
			c0.3-0.2,0.6-0.5,0.8-0.8l0.7-0.9c0.4-0.6,0.9-1.2,1.2-1.9c0.7-1.3,1.3-2.6,1.7-4C1255.8,385.2,1256.2,382.5,1256.1,379.7
			L1256.1,379.7z M1280.1,379.9c-0.9-2-2-3.8-3-5.6c-1.8-3.6-4.1-7-6.9-10c-2.7-2.9-5.7-5.5-9-7.6l0,0c-0.4-0.2-0.9-0.1-1.1,0.2
			c-0.2,0.2-0.2,0.5-0.1,0.8c1.4,3.4,2.6,6.8,3.6,10.4c0.9,3.3,1.6,6.6,2,10c0.1,1.7,0.1,3.3-0.2,5c-0.2,1.6,0,3.2,0.6,4.6
			c0.7,1.6,1.5,3.2,2.4,4.7c0.5,0.8,1.1,1.7,1.8,2.6c0.4,0.5,0.7,0.9,1.1,1.4s0.8,1,1.4,1.6c0.1,0.1,0.3,0.2,0.4,0.1l1.1-0.3
			c0.3-0.1,0.6-0.3,0.8-0.5l0.7-0.6c0.5-0.4,0.9-0.9,1.3-1.3c0.8-0.9,1.4-1.9,2-2.9c1-1.9,1.7-4.1,1.9-6.3
			C1281.4,384,1281,381.8,1280.1,379.9L1280.1,379.9z M1303.6,389.4c0-0.8-0.4-1.5-1.1-1.9c-0.8-0.4-1.6-0.9-2.3-1.5
			c-1.2-1.3-2.5-2.6-3.9-4s-2.8-2.8-4.3-4.3l0,0c-0.3-0.3-0.9-0.4-1.2,0c0,0,0,0,0,0c-0.1,0.1-0.2,0.2-0.2,0.3
			c-0.7,2.1-1.1,4.2-1.3,6.3c-0.3,2.1-0.3,4.3,0,6.4c0.1,1.1,0,2.3,0.1,3.5c0,1.2,0.6,2.3,1.6,3c1.1,0.8,2.4,1.4,3.8,1.6
			c1.9,0.3,3.8,0.1,5.5-0.6c0.5-0.2,0.8-0.5,1-1v-0.1c0.9-2.2,1.4-3.5,1.9-4.8C1303.3,391.4,1303.5,390.4,1303.6,389.4L1303.6,389.4
			z M1326.6,389.2c0-1.3-0.2-2.5-0.6-3.7c-0.4-1-1.1-1.9-2.2-2.3c-1.1-0.5-2.2-1-3.2-1.7c-1.9-1.4-3.8-2.9-5.9-4.3s-4.1-2.9-6.4-4.3
			l0,0c-0.4-0.2-0.9-0.1-1.2,0.3c-0.1,0.2-0.1,0.3-0.1,0.5c0.3,2.6,0.8,5.2,1.5,7.8c0.7,2.5,1.5,5,2.6,7.4c0.5,1.2,0.8,2.6,1.3,3.9
			c0.5,1.3,1.4,2.4,2.6,3.1c1.4,0.8,2.9,1.2,4.5,1.4c2.1,0.2,4.2-0.2,6-1.2c0.4-0.2,0.7-0.7,0.7-1.2v-0.1
			C1326.4,392.3,1326.6,390.7,1326.6,389.2L1326.6,389.2z M1346.9,385.8c-0.1-1.4-0.4-2.7-1-4c-0.5-1.2-1.5-2.1-2.6-2.7
			c-1.2-0.6-2.4-1-3.4-1.6c-2.1-1.2-4.3-2.2-6.6-2.9c-2.3-0.8-4.6-1.3-7-1.6c-0.4,0-0.7,0.2-0.7,0.6c0,0.1,0,0.3,0.1,0.4l0,0
			c1.4,1.9,2.8,3.6,4.2,5.5l3.8,5.2c0.6,0.9,1,1.9,1.4,2.9c0.4,0.9,1.1,1.7,1.9,2.1c1,0.5,2.1,0.9,3.2,1.1c1.5,0.3,3.1,0.5,4.7,0.6
			l0,0c0.4,0,0.8-0.2,1-0.6C1346.6,389.2,1347,387.5,1346.9,385.8L1346.9,385.8z M1369.6,379.4c-0.3-1.5-0.9-3-1.7-4.3
			c-0.6-1-1.4-1.8-2.3-2.5c-0.8-0.6-1.8-0.9-2.8-0.8c-1,0.2-2,0.3-3.1,0.3c-2-0.1-4,0-6,0.1c-2.1,0.2-4.1,0.3-6.2,0.7l-0.3,1.1
			c1.6,1.5,3.2,2.7,4.8,3.9c1.6,1.2,3.3,2.3,5,3.3c0.9,0.6,1.7,1.2,2.4,1.9c0.8,0.6,1.7,0.9,2.7,0.9c1.1-0.1,2.2-0.4,3.3-0.9
			c1.4-0.7,2.7-1.6,3.8-2.7L1369.6,379.4z M1394.8,364l-0.6-1c-2.1,0.1-4.1,0.3-6.1,0.5s-3.9,0.4-5.7,0.6c-1,0.1-1.9,0-2.9-0.1
			c-0.9-0.1-1.7,0.2-2.4,0.7c-0.7,0.7-1.4,1.4-1.9,2.3c-0.6,1-1.2,2.1-2,3.9v1.2c0.9,1.4,2.2,2.5,3.7,3.2c1.1,0.6,2.4,0.9,3.7,0.9
			c1.1,0,2.2-0.4,3-1.1c0.9-0.7,1.6-1.6,2.5-2.2c1.7-1.2,3.3-2.6,4.7-4.1C1392.1,367.4,1393.5,365.7,1394.8,364z M1181.1,243.3
			c0,0-2-16.7-20.7-22.3s-33.3,15-37.3,34C1123.1,255,1142.8,216.7,1181.1,243.3z M793.8,994.5c7.3-2.8,4.3,22.5,9,30.3
			s1.8,14.8,5.5,25s5.3,18,2.8,18.8s-6.5-5.3-6.5-5.3c1.5,16,18.5,29,20.5,32s-2,1-2,1c2,3.3,4.8,6.3,9.5,11.3
			c2.8,2.8,3.8,6.9,2.8,10.8c9.3-1.8,32.6,26.6,44.7,42.4c5.3,7,9.7,14.6,12.8,22.8c0.5,1.3,0.9,2.3,0.9,2.3s0.6-1,1.2-2.8
			c3.1-8.2,7.4-15.9,12.8-22.8c12.2-15.8,35.2-43.8,44.4-42c-1.1-3.8,0-7.9,2.8-10.8c4.8-5,7.5-8,9.5-11.3c0,0-4,2-2-1
			s19-16,20.5-32c0,0-4,6-6.5,5.3s-1-8.5,2.8-18.8s0.8-17.3,5.5-25s1.8-33,9-30.3c-2.2-3.3-2.7-7.5-1.3-11.3
			c2.4-5.9,3.6-9.4,2.9-14.6c0,1.3-0.8,3.9-5.1,8.6c-6.5,7-11.5,12.3-12.5,24.3s0.3,45.8-6.3,55s-10.5,13.8-11,18.3
			c1.3-1.2,3-1.8,4.8-1.8c3.3,0,0.5,4.5-3,7.5s-11.8,7.8-12,16.5s-22.8,29-31,35.8c-8,6.6-20.8,17.9-25.4,18.9
			c-4.6-1-17.4-12.3-25.4-18.9c-8.3-6.8-30.8-27-31-35.8s-8.5-13.5-12-16.5s-6.3-7.5-3-7.5c1.8-0.1,3.5,0.5,4.8,1.8
			c-0.5-4.5-4.5-9-11-18.3s-5.3-43-6.3-55s-6-17.3-12.5-24.3c-4.3-4.7-5.1-7.3-5.1-8.6c-0.7,5.2,0.5,8.7,2.9,14.6
			C796.6,987,796.1,991.2,793.8,994.5z M841.8,1023c-1-14.5-9.5-49.3-9.5-49.3s29,27.3,34.5,33.5s5.8-4.5,4.3-8.3s-3.5-6.8-4.3-11.5
			c0,0,2.8,4.5,6.8,6.3s10.3,5,13.5,9.3c2.8,3.7,10.5,3.7,13.3,0c3.3-4.3,9.5-7.5,13.5-9.3s6.8-6.3,6.8-6.3
			c-0.8,4.8-2.8,7.8-4.3,11.5s-1.3,14.5,4.3,8.3s34.5-33.5,34.5-33.5s-8.5,34.8-9.5,49.3s-20.5,49-29,60s-22.9,36.3-22.9,36.2
			c0,0.1-14.4-25.2-22.9-36.2S842.8,1037.5,841.8,1023L841.8,1023z M899.2,1041c0.3-1,7.8-9,10.3-14s8.3-9.3,8.3-9.3
			c-2.2-1.3-4.7-1.9-7.3-2c-4,0-7,5.5-7.3,8.5s0.5,5.5-1.3,7S899.2,1041,899.2,1041L899.2,1041z M869.8,1017.8c0,0,5.8,4.3,8.3,9.3
			s10,13,10.3,14c0,0-1-8.3-2.8-9.8s-1-4-1.3-7s-3.3-8.5-7.3-8.5C874.6,1015.8,872.1,1016.5,869.8,1017.8z M854.3,1016
			c0.8,8-1.3,27.5,3.8,35.8s25.5,22.5,25.5,22.5s-8.5-18-12.5-20.5s-10.5-7.3-9.5-18.5c0,0,1,5.8,6.3,7.8s8.3,3.8,11,11.3
			c1.9,5.1,10,19.9,14.9,28.7c4.9-8.8,13-23.6,14.9-28.7c2.8-7.5,5.8-9.3,11-11.3s6.3-7.8,6.3-7.8c1,11.3-5.5,16-9.5,18.5
			s-12.5,20.5-12.5,20.5s20.5-14.3,25.5-22.5s3-27.8,3.8-35.8s-2.5-7.8-2.5-7.8c0,19-17.8,30.5-23.8,35c-4,3-13.1,20.3-13.2,20.2
			s-9.2-17.3-13.2-20.2c-6-4.5-23.8-16-23.8-35C856.8,1008.3,853.6,1008,854.3,1016L854.3,1016z M1077.1,1113.9
			c-0.9-47.5,6.1-108.6,23.9-146.1c-36.5,3.4-16,73.8-37.2,103.6c1.5,89.3-50.3,148-98.3,196.6c-6.6,23.6-22,38.3-42.5,47.8
			c1.6,25.5-22.9,24.9-29.2,42.5c-6.3-17.6-30.8-17-29.2-42.5c-20.5-9.6-35.9-24.3-42.5-47.8c-48-48.6-99.8-107.3-98.3-196.6
			c-21.2-29.8-0.7-100.3-37.2-103.6c17.8,37.5,24.8,98.6,23.9,146.1c11.7,2.5,19.5,20,14.4,30.5c0.1-4.6-6.3-8-9.6-9.2
			c49,91.3,109.7,165.5,178.5,233.8c68.9-68.3,129.6-142.4,178.6-233.8c-3.3,1.2-9.7,4.6-9.6,9.2
			C1057.6,1133.9,1065.4,1116.4,1077.1,1113.9z"/>
	</g>
</g>
</svg>
